<svg width="42" height="43" viewBox="0 0 42 43" fill="none" xmlns="http://www.w3.org/2000/svg">
<g filter="url(#filter0_d_126_1967)">
<path d="M21 12.25C21.9625 12.25 22.75 11.4625 22.75 10.5C22.75 9.5375 21.9625 8.75 21 8.75C20.0375 8.75 19.25 9.5375 19.25 10.5C19.25 11.4625 20.0375 12.25 21 12.25Z" stroke="#8950F8" stroke-width="2"/>
<path d="M21 22.75C21.9625 22.75 22.75 21.9625 22.75 21C22.75 20.0375 21.9625 19.25 21 19.25C20.0375 19.25 19.25 20.0375 19.25 21C19.25 21.9625 20.0375 22.75 21 22.75Z" stroke="#8950F8" stroke-width="2"/>
<path d="M21 33.25C21.9625 33.25 22.75 32.4625 22.75 31.5C22.75 30.5375 21.9625 29.75 21 29.75C20.0375 29.75 19.25 30.5375 19.25 31.5C19.25 32.4625 20.0375 33.25 21 33.25Z" stroke="#8950F8" stroke-width="2"/>
</g>
<defs>
<filter id="filter0_d_126_1967" x="-4" y="0" width="50" height="50" filterUnits="userSpaceOnUse" color-interpolation-filters="sRGB">
<feFlood flood-opacity="0" result="BackgroundImageFix"/>
<feColorMatrix in="SourceAlpha" type="matrix" values="0 0 0 0 0 0 0 0 0 0 0 0 0 0 0 0 0 0 127 0" result="hardAlpha"/>
<feOffset dy="4"/>
<feGaussianBlur stdDeviation="2"/>
<feComposite in2="hardAlpha" operator="out"/>
<feColorMatrix type="matrix" values="0 0 0 0 0 0 0 0 0 0 0 0 0 0 0 0 0 0 0.25 0"/>
<feBlend mode="normal" in2="BackgroundImageFix" result="effect1_dropShadow_126_1967"/>
<feBlend mode="normal" in="SourceGraphic" in2="effect1_dropShadow_126_1967" result="shape"/>
</filter>
</defs>
</svg>
